<?xml version="1.0" encoding="UTF-8" standalone="no"?>
<!-- Created with Inkscape (http://www.inkscape.org/) -->

<svg
   xmlns:dc="http://purl.org/dc/elements/1.1/"
   xmlns:cc="http://creativecommons.org/ns#"
   xmlns:rdf="http://www.w3.org/1999/02/22-rdf-syntax-ns#"
   xmlns:svg="http://www.w3.org/2000/svg"
   xmlns="http://www.w3.org/2000/svg"
   xmlns:sodipodi="http://sodipodi.sourceforge.net/DTD/sodipodi-0.dtd"
   xmlns:inkscape="http://www.inkscape.org/namespaces/inkscape"
   width="78.028664"
   height="21.545321"
   viewBox="0 0 20.645084 5.7005326"
   version="1.1"
   id="svg2916"
   inkscape:version="0.92.0 r15299"
   sodipodi:docname="ald automotive.svg">
  <defs
     id="defs2910" />
  <sodipodi:namedview
     id="base"
     pagecolor="#ffffff"
     bordercolor="#666666"
     borderopacity="1.0"
     inkscape:pageopacity="0.0"
     inkscape:pageshadow="2"
     inkscape:zoom="10.411708"
     inkscape:cx="38.514334"
     inkscape:cy="10.272661"
     inkscape:document-units="mm"
     inkscape:current-layer="layer1"
     showgrid="false"
     fit-margin-top="0"
     fit-margin-left="0"
     fit-margin-right="0"
     fit-margin-bottom="0"
     units="px"
     inkscape:window-width="1280"
     inkscape:window-height="744"
     inkscape:window-x="-4"
     inkscape:window-y="-4"
     inkscape:window-maximized="1" />
  <metadata
     id="metadata2913">
    <rdf:RDF>
      <cc:Work
         rdf:about="">
        <dc:format>image/svg+xml</dc:format>
        <dc:type
           rdf:resource="http://purl.org/dc/dcmitype/StillImage" />
        <dc:title></dc:title>
      </cc:Work>
    </rdf:RDF>
  </metadata>
  <g
     inkscape:label="Layer 1"
     inkscape:groupmode="layer"
     id="layer1"
     transform="translate(-75.988319,-204.81506)">
    <g
       transform="translate(165.55809,-33.215029)"
       id="g2838">
      <path
         d="m -81.360175,239.94751 h 0.886883 l -0.44203,-0.93274 z m -0.1778,0.3743 -0.263878,0.55844 h -0.460375 l 1.12007,-2.30116 h 0.448027 l 1.122892,2.30116 h -0.460375 l -0.263525,-0.55844 z"
         style="fill:#000000;fill-opacity:1;fill-rule:nonzero;stroke:none;stroke-width:0.35277778"
         id="path26"
         inkscape:connector-curvature="0" />
      <path
         d="m -79.288876,240.88032 v -2.30117 h 0.426508 v 1.92052 h 1.537406 v 0.38065 z"
         style="fill:#000000;fill-opacity:1;fill-rule:nonzero;stroke:none;stroke-width:0.35277778"
         id="path30"
         inkscape:connector-curvature="0" />
      <g
         transform="matrix(0.35277777,0,0,-0.35277777,-75.843366,240.49382)"
         id="g40">
        <path
           inkscape:connector-curvature="0"
           id="path42"
           style="fill:#000000;fill-opacity:1;fill-rule:nonzero;stroke:none"
           d="M 0,0 C 1.418,0 2.14,0.931 2.14,2.174 2.14,3.392 1.418,4.331 0,4.331 H -2.208 V 0 Z m 0,5.428 c 2.053,0 3.392,-1.296 3.392,-3.254 0,-1.809 -1.426,-3.27 -3.208,-3.27 h -3.602 v 6.524 z" />
      </g>
      <g
         transform="matrix(0.35277777,0,0,-0.35277777,-81.211091,242.86134)"
         id="g44">
        <path
           inkscape:connector-curvature="0"
           id="path46"
           style="fill:#000000;fill-opacity:1;fill-rule:nonzero;stroke:none"
           d="m 0,0 -0.403,1.141 c -0.145,0.411 -0.213,0.64 -0.266,0.807 H -0.685 C -0.738,1.773 -0.814,1.545 -0.959,1.141 L -1.377,0 Z m -0.989,3.097 h 0.593 L 1.591,-1.941 H 0.738 l -0.487,1.286 h -1.864 l -0.48,-1.286 h -0.821 z" />
      </g>
      <g
         transform="matrix(0.35277777,0,0,-0.35277777,-80.424361,243.3286)"
         id="g48">
        <path
           inkscape:connector-curvature="0"
           id="path50"
           style="fill:#000000;fill-opacity:1;fill-rule:nonzero;stroke:none"
           d="m 0,0 c -0.076,0.198 -0.107,0.403 -0.107,0.723 v 2.26 H 0.685 V 0.83 c 0,-0.206 0.015,-0.358 0.068,-0.488 0.092,-0.235 0.274,-0.349 0.556,-0.349 0.342,0 0.654,0.174 0.829,0.38 v 2.61 H 2.93 V 0.381 c 0,-0.495 0.015,-0.807 0.068,-0.997 H 2.314 l -0.13,0.388 C 1.895,-0.487 1.514,-0.693 1.043,-0.693 0.692,-0.693 0.205,-0.548 0,0" />
      </g>
      <g
         transform="matrix(0.35277777,0,0,-0.35277777,-78.939626,243.24527)"
         id="g52">
        <path
           inkscape:connector-curvature="0"
           id="path54"
           style="fill:#000000;fill-opacity:1;fill-rule:nonzero;stroke:none"
           d="M 0,0 V 2.123 H -0.632 V 2.747 H 0 v 0.83 L 0.791,3.82 V 2.747 H 1.872 L 1.674,2.123 H 0.791 V 0.175 c 0,-0.327 0.122,-0.457 0.358,-0.457 0.221,0 0.419,0.084 0.564,0.183 L 1.964,-0.647 C 1.713,-0.822 1.317,-0.929 0.959,-0.929 0.358,-0.929 0,-0.586 0,0" />
      </g>
      <g
         transform="matrix(0.35277777,0,0,-0.35277777,-77.162367,242.90706)"
         id="g56">
        <path
           inkscape:connector-curvature="0"
           id="path58"
           style="fill:#000000;fill-opacity:1;fill-rule:nonzero;stroke:none"
           d="M 0,0 C 0,0.716 -0.335,1.233 -0.936,1.233 -1.537,1.233 -1.88,0.716 -1.88,0 c 0,-0.723 0.343,-1.241 0.944,-1.241 C -0.335,-1.241 0,-0.723 0,0 m -2.694,0 c 0,1.073 0.7,1.88 1.758,1.88 1.05,0 1.75,-0.807 1.75,-1.88 0,-1.073 -0.7,-1.888 -1.75,-1.888 -1.05,0 -1.758,0.815 -1.758,1.888" />
      </g>
      <g
         transform="matrix(0.35277777,0,0,-0.35277777,-76.617395,242.27612)"
         id="g60">
        <path
           inkscape:connector-curvature="0"
           id="path62"
           style="fill:#000000;fill-opacity:1;fill-rule:nonzero;stroke:none"
           d="m 0,0 h 0.662 l 0.084,-0.426 c 0.365,0.296 0.776,0.517 1.225,0.517 0.426,0 0.769,-0.198 0.943,-0.578 0.435,0.373 0.891,0.578 1.31,0.578 0.616,0 1.149,-0.358 1.149,-1.293 V -3.6 H 4.581 v 2.177 c 0,0.456 -0.091,0.821 -0.57,0.821 -0.32,0 -0.647,-0.182 -0.936,-0.418 0.007,-0.045 0.007,-0.107 0.007,-0.168 V -3.6 H 2.291 v 2.169 c 0,0.457 -0.092,0.829 -0.564,0.829 -0.327,0 -0.654,-0.182 -0.936,-0.418 V -3.6 H 0 Z" />
      </g>
      <g
         transform="matrix(0.35277777,0,0,-0.35277777,-73.519089,242.90706)"
         id="g64">
        <path
           inkscape:connector-curvature="0"
           id="path66"
           style="fill:#000000;fill-opacity:1;fill-rule:nonzero;stroke:none"
           d="M 0,0 C 0,0.716 -0.335,1.233 -0.936,1.233 -1.537,1.233 -1.88,0.716 -1.88,0 c 0,-0.723 0.343,-1.241 0.944,-1.241 C -0.335,-1.241 0,-0.723 0,0 m -2.694,0 c 0,1.073 0.7,1.88 1.758,1.88 1.05,0 1.75,-0.807 1.75,-1.88 0,-1.073 -0.7,-1.888 -1.75,-1.888 -1.05,0 -1.758,0.815 -1.758,1.888" />
      </g>
      <g
         transform="matrix(0.35277777,0,0,-0.35277777,-72.861371,243.24527)"
         id="g68">
        <path
           inkscape:connector-curvature="0"
           id="path70"
           style="fill:#000000;fill-opacity:1;fill-rule:nonzero;stroke:none"
           d="M 0,0 V 2.123 H -0.632 V 2.747 H 0 v 0.83 L 0.792,3.82 V 2.747 h 1.08 L 1.674,2.123 H 0.792 V 0.175 c 0,-0.327 0.121,-0.457 0.357,-0.457 0.221,0 0.419,0.084 0.564,0.183 L 1.964,-0.647 C 1.713,-0.822 1.317,-0.929 0.959,-0.929 0.358,-0.929 0,-0.586 0,0" />
      </g>
      <path
         inkscape:connector-curvature="0"
         id="path72"
         style="fill:#000000;fill-opacity:1;fill-rule:nonzero;stroke:none;stroke-width:0.35277778"
         d="m -71.956637,242.27612 h 0.279048 v 1.27 h -0.279048 z m -0.03493,-0.40534 c 0,-0.0967 0.07267,-0.1718 0.174273,-0.1718 0.102305,0 0.174625,0.0723 0.174625,0.1718 0,0.0967 -0.07514,0.1718 -0.174625,0.1718 -0.1016,0 -0.174273,-0.0751 -0.174273,-0.1718" />
      <g
         transform="matrix(0.35277777,0,0,-0.35277777,-71.484126,242.27612)"
         id="g74">
        <path
           inkscape:connector-curvature="0"
           id="path76"
           style="fill:#000000;fill-opacity:1;fill-rule:nonzero;stroke:none"
           d="M 0,0 H 0.807 L 1.751,-2.595 H 1.766 L 2.687,0 H 3.494 L 2.055,-3.623 H 1.446 Z" />
      </g>
      <g
         transform="matrix(0.35277777,0,0,-0.35277777,-69.341671,242.78084)"
         id="g78">
        <path
           inkscape:connector-curvature="0"
           id="path80"
           style="fill:#000000;fill-opacity:1;fill-rule:nonzero;stroke:none"
           d="M 0,0 C -0.015,0.457 -0.236,0.906 -0.746,0.906 -1.225,0.906 -1.506,0.487 -1.514,0 Z m -2.314,-0.358 c 0,1.088 0.602,1.88 1.576,1.88 0.982,0 1.545,-0.731 1.545,-1.895 v -0.19 h -2.313 c 0.014,-0.617 0.418,-1.051 1.072,-1.051 0.358,0 0.648,0.099 0.906,0.244 l 0.236,-0.54 c -0.35,-0.228 -0.799,-0.336 -1.226,-0.336 -1.255,0 -1.796,0.891 -1.796,1.888" />
      </g>
      <path
         inkscape:connector-curvature="0"
         id="path82"
         style="fill:#e4032e;fill-opacity:1;fill-rule:evenodd;stroke:none;stroke-width:0.35277778"
         d="m -89.437481,238.16238 h 5.435953 v 2.7178 h -5.435953 z" />
      <path
         inkscape:connector-curvature="0"
         id="path84"
         style="fill:#000000;fill-opacity:1;fill-rule:evenodd;stroke:none;stroke-width:0.35277778"
         d="m -89.437481,240.88018 h 5.435953 v 2.71815 h -5.435953 z" />
      <path
         inkscape:connector-curvature="0"
         id="path86"
         style="fill:#ffffff;fill-opacity:1;fill-rule:evenodd;stroke:none;stroke-width:0.35277778"
         d="m -88.487803,240.71508 h 3.536597 v 0.33055 h -3.536597 z" />
    </g>
  </g>
</svg>
